<svg width="14" height="15" viewBox="0 0 14 15" fill="none" xmlns="http://www.w3.org/2000/svg">
<g clip-path="url(#clip0_3_155)">
<path d="M4.60059 11.239V9.73901C4.60059 9.6661 4.57715 9.6062 4.53027 9.55933C4.4834 9.51245 4.4235 9.48901 4.35059 9.48901H1.85059C1.77767 9.48901 1.71777 9.51245 1.6709 9.55933C1.62402 9.6062 1.60059 9.6661 1.60059 9.73901V11.239C1.60059 11.3119 1.62402 11.3718 1.6709 11.4187C1.71777 11.4656 1.77767 11.489 1.85059 11.489H4.35059C4.4235 11.489 4.4834 11.4656 4.53027 11.4187C4.57715 11.3718 4.60059 11.3119 4.60059 11.239ZM4.60059 8.23901V6.73901C4.60059 6.6661 4.57715 6.6062 4.53027 6.55933C4.4834 6.51245 4.4235 6.48901 4.35059 6.48901H1.85059C1.77767 6.48901 1.71777 6.51245 1.6709 6.55933C1.62402 6.6062 1.60059 6.6661 1.60059 6.73901V8.23901C1.60059 8.31193 1.62402 8.37183 1.6709 8.4187C1.71777 8.46558 1.77767 8.48901 1.85059 8.48901H4.35059C4.4235 8.48901 4.4834 8.46558 4.53027 8.4187C4.57715 8.37183 4.60059 8.31193 4.60059 8.23901ZM8.60059 11.239V9.73901C8.60059 9.6661 8.57715 9.6062 8.53027 9.55933C8.4834 9.51245 8.4235 9.48901 8.35059 9.48901H5.85059C5.77767 9.48901 5.71777 9.51245 5.6709 9.55933C5.62402 9.6062 5.60059 9.6661 5.60059 9.73901V11.239C5.60059 11.3119 5.62402 11.3718 5.6709 11.4187C5.71777 11.4656 5.77767 11.489 5.85059 11.489H8.35059C8.4235 11.489 8.4834 11.4656 8.53027 11.4187C8.57715 11.3718 8.60059 11.3119 8.60059 11.239ZM4.60059 5.23901V3.73901C4.60059 3.6661 4.57715 3.6062 4.53027 3.55933C4.4834 3.51245 4.4235 3.48901 4.35059 3.48901H1.85059C1.77767 3.48901 1.71777 3.51245 1.6709 3.55933C1.62402 3.6062 1.60059 3.6661 1.60059 3.73901V5.23901C1.60059 5.31193 1.62402 5.37183 1.6709 5.4187C1.71777 5.46558 1.77767 5.48901 1.85059 5.48901H4.35059C4.4235 5.48901 4.4834 5.46558 4.53027 5.4187C4.57715 5.37183 4.60059 5.31193 4.60059 5.23901ZM8.60059 8.23901V6.73901C8.60059 6.6661 8.57715 6.6062 8.53027 6.55933C8.4834 6.51245 8.4235 6.48901 8.35059 6.48901H5.85059C5.77767 6.48901 5.71777 6.51245 5.6709 6.55933C5.62402 6.6062 5.60059 6.6661 5.60059 6.73901V8.23901C5.60059 8.31193 5.62402 8.37183 5.6709 8.4187C5.71777 8.46558 5.77767 8.48901 5.85059 8.48901H8.35059C8.4235 8.48901 8.4834 8.46558 8.53027 8.4187C8.57715 8.37183 8.60059 8.31193 8.60059 8.23901ZM12.6006 11.239V9.73901C12.6006 9.6661 12.5771 9.6062 12.5303 9.55933C12.4834 9.51245 12.4235 9.48901 12.3506 9.48901H9.85059C9.77767 9.48901 9.71777 9.51245 9.6709 9.55933C9.62402 9.6062 9.60059 9.6661 9.60059 9.73901V11.239C9.60059 11.3119 9.62402 11.3718 9.6709 11.4187C9.71777 11.4656 9.77767 11.489 9.85059 11.489H12.3506C12.4235 11.489 12.4834 11.4656 12.5303 11.4187C12.5771 11.3718 12.6006 11.3119 12.6006 11.239ZM8.60059 5.23901V3.73901C8.60059 3.6661 8.57715 3.6062 8.53027 3.55933C8.4834 3.51245 8.4235 3.48901 8.35059 3.48901H5.85059C5.77767 3.48901 5.71777 3.51245 5.6709 3.55933C5.62402 3.6062 5.60059 3.6661 5.60059 3.73901V5.23901C5.60059 5.31193 5.62402 5.37183 5.6709 5.4187C5.71777 5.46558 5.77767 5.48901 5.85059 5.48901H8.35059C8.4235 5.48901 8.4834 5.46558 8.53027 5.4187C8.57715 5.37183 8.60059 5.31193 8.60059 5.23901ZM12.6006 8.23901V6.73901C12.6006 6.6661 12.5771 6.6062 12.5303 6.55933C12.4834 6.51245 12.4235 6.48901 12.3506 6.48901H9.85059C9.77767 6.48901 9.71777 6.51245 9.6709 6.55933C9.62402 6.6062 9.60059 6.6661 9.60059 6.73901V8.23901C9.60059 8.31193 9.62402 8.37183 9.6709 8.4187C9.71777 8.46558 9.77767 8.48901 9.85059 8.48901H12.3506C12.4235 8.48901 12.4834 8.46558 12.5303 8.4187C12.5771 8.37183 12.6006 8.31193 12.6006 8.23901ZM12.6006 5.23901V3.73901C12.6006 3.6661 12.5771 3.6062 12.5303 3.55933C12.4834 3.51245 12.4235 3.48901 12.3506 3.48901H9.85059C9.77767 3.48901 9.71777 3.51245 9.6709 3.55933C9.62402 3.6062 9.60059 3.6661 9.60059 3.73901V5.23901C9.60059 5.31193 9.62402 5.37183 9.6709 5.4187C9.71777 5.46558 9.77767 5.48901 9.85059 5.48901H12.3506C12.4235 5.48901 12.4834 5.46558 12.5303 5.4187C12.5771 5.37183 12.6006 5.31193 12.6006 5.23901ZM13.6006 2.73901V11.239C13.6006 11.5828 13.4782 11.877 13.2334 12.1218C12.9886 12.3666 12.6943 12.489 12.3506 12.489H1.85059C1.50684 12.489 1.21257 12.3666 0.967773 12.1218C0.722982 11.877 0.600586 11.5828 0.600586 11.239V2.73901C0.600586 2.39526 0.722982 2.10099 0.967773 1.8562C1.21257 1.61141 1.50684 1.48901 1.85059 1.48901H12.3506C12.6943 1.48901 12.9886 1.61141 13.2334 1.8562C13.4782 2.10099 13.6006 2.39526 13.6006 2.73901Z" fill="white"/>
</g>
<defs>
<clipPath id="clip0_3_155">
<rect width="13" height="14" fill="white" transform="matrix(1 0 0 -1 0.600586 14.489)"/>
</clipPath>
</defs>
</svg>
