<svg width="15" height="17" viewBox="0 0 15 17" fill="none" xmlns="http://www.w3.org/2000/svg">
<path d="M5.52394 1.46418C5.52394 1.46418 5.6756 1.43503 5.97894 1.37673C6.28227 1.31843 6.76449 1.28928 7.4256 1.28928C8.08672 1.28928 8.71672 1.34758 9.3156 1.46418C9.91449 1.58077 10.4084 1.72846 10.7973 1.90724C11.1862 2.08603 11.4934 2.27258 11.7189 2.46691C11.9445 2.66124 12.0573 2.84002 12.0573 3.00325V14.1149C12.0573 14.4336 11.9425 14.7076 11.7131 14.9369C11.4837 15.1662 11.2095 15.2809 10.8906 15.2809H3.8906C3.57172 15.2809 3.29755 15.1662 3.0681 14.9369C2.83866 14.7076 2.72394 14.4336 2.72394 14.1149V3.00325C2.72394 2.84002 2.8406 2.65929 3.07394 2.46108C3.30727 2.26287 3.62227 2.07631 4.01894 1.90141C4.4156 1.72652 4.91727 1.58077 5.52394 1.46418ZM3.8906 3.62122V11.783H10.8906V3.62122H3.8906ZM8.2481 12.6749C8.2481 12.6749 8.1888 12.6157 8.07019 12.4971C7.95158 12.3786 7.72505 12.3193 7.3906 12.3193C7.05616 12.3193 6.77033 12.4379 6.5331 12.6749C6.29588 12.912 6.17727 13.1977 6.17727 13.5319C6.17727 13.8662 6.29588 14.1518 6.5331 14.3889C6.77033 14.626 7.05616 14.7445 7.3906 14.7445C7.72505 14.7445 8.01088 14.626 8.2481 14.3889C8.48533 14.1518 8.60394 13.8662 8.60394 13.5319C8.60394 13.1977 8.48533 12.912 8.2481 12.6749Z" fill="white"/>
</svg>
