<svg width="15" height="17" viewBox="0 0 15 17" fill="none" xmlns="http://www.w3.org/2000/svg">
<g clip-path="url(#clip0_3_109)">
<path d="M0.532237 2.4552H13.9489C14.0267 2.4552 14.0753 2.47463 14.0947 2.5135C14.1142 2.55236 14.0928 2.60289 14.0306 2.66507L7.45057 9.27611C7.38835 9.33829 7.31835 9.36938 7.24057 9.36938C7.16279 9.36938 7.09279 9.33829 7.03057 9.27611L0.45057 2.66507C0.388348 2.60289 0.366959 2.55236 0.386403 2.5135C0.405848 2.47463 0.454459 2.4552 0.532237 2.4552ZM0.45057 4.99701L3.53057 8.07516C3.59279 8.13735 3.6239 8.2073 3.6239 8.28503C3.6239 8.36277 3.59279 8.43272 3.53057 8.49491L0.45057 11.5731C0.388348 11.6352 0.337792 11.6566 0.298903 11.6372C0.260015 11.6178 0.24057 11.5692 0.24057 11.4914V5.07863C0.24057 5.00089 0.260015 4.95231 0.298903 4.93288C0.337792 4.91345 0.388348 4.93482 0.45057 4.99701ZM10.9506 8.07516L14.0306 4.99701C14.0928 4.93482 14.1433 4.91345 14.1822 4.93288C14.2211 4.95231 14.2406 5.00089 14.2406 5.07863V11.4914C14.2406 11.5692 14.2211 11.6178 14.1822 11.6372C14.1433 11.6566 14.0928 11.6352 14.0306 11.5731L10.9506 8.49491C10.8883 8.43272 10.8572 8.36277 10.8572 8.28503C10.8572 8.2073 10.8883 8.13735 10.9506 8.07516ZM9.7839 9.66087L14.0306 13.905C14.0928 13.9672 14.1142 14.0177 14.0947 14.0566C14.0753 14.0954 14.0267 14.1149 13.9489 14.1149H0.532237C0.454459 14.1149 0.405848 14.0954 0.386403 14.0566C0.366959 14.0177 0.388348 13.9672 0.45057 13.905L4.69724 9.66087C4.75946 9.59869 4.82946 9.5676 4.90724 9.5676C4.98501 9.5676 5.05501 9.59869 5.11724 9.66087L7.03057 11.5731C7.09279 11.6352 7.16279 11.6663 7.24057 11.6663C7.31835 11.6663 7.38835 11.6352 7.45057 11.5731L9.3639 9.66087C9.42613 9.59869 9.49613 9.5676 9.5739 9.5676C9.65168 9.5676 9.72168 9.59869 9.7839 9.66087Z" fill="white"/>
</g>
<defs>
<clipPath id="clip0_3_109">
<rect width="14" height="16.66" fill="white" transform="matrix(1 0 0 -1 0.24057 16.7491)"/>
</clipPath>
</defs>
</svg>
