<svg width="15" height="17" viewBox="0 0 15 17" fill="none" xmlns="http://www.w3.org/2000/svg">
<g clip-path="url(#clip0_3_66)">
<path d="M6.00392 0.123315H9.50392C9.82281 0.123315 10.097 0.237967 10.3264 0.467275C10.5559 0.696582 10.6706 0.970584 10.6706 1.28928V2.45525H13.8789C13.9567 2.45525 14.0247 2.4844 14.0831 2.5427C14.1414 2.60099 14.1706 2.66901 14.1706 2.74674V3.62121H1.33725V2.74674C1.33725 2.66901 1.36642 2.60099 1.42475 2.5427C1.48308 2.4844 1.55114 2.45525 1.62892 2.45525H4.83725V1.28928C4.83725 0.970584 4.95197 0.696582 5.18142 0.467275C5.41086 0.237967 5.68503 0.123315 6.00392 0.123315ZM6.00392 1.28928V2.45525H9.50392V1.28928H6.00392ZM13.0039 4.78718V14.1149C13.0039 14.4336 12.8892 14.7076 12.6597 14.9369C12.4303 15.1662 12.1561 15.2809 11.8372 15.2809H3.67058C3.35169 15.2809 3.07753 15.1662 2.84808 14.9369C2.61864 14.7076 2.50392 14.4336 2.50392 14.1149V4.78718H13.0039ZM3.67058 5.95315V14.1149H4.83725V5.95315H3.67058ZM6.00392 5.95315V14.1149H7.17058V5.95315H6.00392ZM8.33725 5.95315V14.1149H9.50392V5.95315H8.33725ZM10.6706 5.95315V14.1149H11.8372V5.95315H10.6706Z" fill="white"/>
</g>
<defs>
<clipPath id="clip0_3_66">
<rect width="14" height="16.66" fill="white" transform="matrix(1 0 0 -1 0.170593 16.7491)"/>
</clipPath>
</defs>
</svg>
