<svg width="15" height="17" viewBox="0 0 15 17" fill="none" xmlns="http://www.w3.org/2000/svg">
<g clip-path="url(#clip0_3_63)">
<path d="M11.8973 3.46964L13.1573 2.12878C13.1728 2.12101 13.1923 2.11323 13.2156 2.10546C13.2389 2.09769 13.2895 2.08991 13.3673 2.08214C13.445 2.07437 13.5248 2.07825 13.6064 2.0938C13.6881 2.10935 13.7853 2.14627 13.8981 2.20457C14.0109 2.26287 14.1217 2.34643 14.2306 2.45525C14.4017 2.62626 14.5067 2.79338 14.5456 2.95661C14.5845 3.11985 14.5845 3.24422 14.5456 3.32972L14.4756 3.44632L13.2156 4.78718L11.8973 3.46964ZM4.31392 2.45525H8.98059C9.36948 2.45525 9.77781 2.50577 10.2056 2.60682L8.02392 4.78718H3.73059C3.4117 4.78718 3.13754 4.90184 2.90809 5.13114C2.67865 5.36045 2.56392 5.63445 2.56392 5.95315V11.783C2.56392 12.1017 2.67865 12.3757 2.90809 12.605C3.13754 12.8343 3.4117 12.949 3.73059 12.949H9.56392C9.88281 12.949 10.157 12.8343 10.3864 12.605C10.6159 12.3757 10.7306 12.1017 10.7306 11.783V9.66092L13.0639 7.32899V11.2C13.0639 12.4826 12.7003 13.4834 11.9731 14.2024C11.2459 14.9214 10.2484 15.2809 8.98059 15.2809H4.31392C3.03059 15.2809 2.0292 14.9214 1.30976 14.2024C0.590313 13.4834 0.230591 12.4826 0.230591 11.2V6.53613C0.230591 5.25357 0.590313 4.25278 1.30976 3.53377C2.0292 2.81476 3.03059 2.45525 4.31392 2.45525ZM12.0023 5.91817L7.77892 10.139L5.90059 10.722L6.54226 8.73981L10.6839 4.60063L12.0023 5.91817Z" fill="white"/>
</g>
<defs>
<clipPath id="clip0_3_63">
<rect width="14" height="16.66" fill="white" transform="matrix(1 0 0 -1 0.230591 16.7491)"/>
</clipPath>
</defs>
</svg>
