<svg width="15" height="17" viewBox="0 0 15 17" fill="none" xmlns="http://www.w3.org/2000/svg">
<g clip-path="url(#clip0_3_116)">
<path d="M13.523 2.62427C13.523 2.62427 13.5512 2.59609 13.6076 2.53973C13.664 2.48338 13.7739 2.4552 13.9372 2.4552C14.1005 2.4552 14.2386 2.51156 14.3514 2.62427C14.4642 2.73698 14.5205 2.87495 14.5205 3.03818V12.9489C14.5205 13.1121 14.4642 13.2501 14.3514 13.3628C14.2386 13.4755 14.1005 13.5319 13.9372 13.5319C13.7739 13.5319 13.6358 13.4755 13.523 13.3628C13.4103 13.2501 13.3539 13.1121 13.3539 12.9489V3.03818C13.3539 2.87495 13.4103 2.73698 13.523 2.62427ZM12.1872 12.9489L4.31222 10.617H3.86888L4.41722 13.835C4.44055 13.9594 4.41916 14.0371 4.35305 14.0682C4.28694 14.0993 4.17221 14.1149 4.00888 14.1149C3.96999 14.1149 3.94277 14.1149 3.92722 14.1149H2.94722C2.79166 14.1149 2.65749 14.0605 2.54472 13.9516C2.43194 13.8428 2.35999 13.7068 2.32888 13.5435C1.9011 10.924 1.68722 9.55982 1.68722 9.451V6.53608C1.68722 6.52054 1.68722 6.49722 1.68722 6.46613C1.68722 6.34176 1.6911 6.25042 1.69888 6.19212C1.70666 6.13383 1.73194 6.07941 1.77472 6.02889C1.81749 5.97836 1.88555 5.9531 1.97888 5.9531H4.31222L12.1872 3.03818V12.9489ZM0.520548 6.53608V9.451C0.489437 9.451 0.44666 9.44906 0.392215 9.44517C0.337771 9.44128 0.244437 9.41797 0.112215 9.37521C-0.0200071 9.33246 -0.136674 9.27416 -0.237785 9.20032C-0.338896 9.12647 -0.432229 9.00988 -0.517785 8.85053C-0.60334 8.69118 -0.646118 8.50268 -0.646118 8.28503V7.70205C-0.646118 7.49995 -0.605285 7.32117 -0.523618 7.16571C-0.441951 7.01024 -0.344729 6.89365 -0.231952 6.81592C-0.119174 6.73818 -0.00639594 6.676 0.106382 6.62936C0.21916 6.58272 0.318326 6.55552 0.403882 6.54774L0.520548 6.53608Z" fill="white"/>
</g>
<defs>
<clipPath id="clip0_3_116">
<rect width="14" height="16.66" fill="white" transform="matrix(1 0 0 -1 0.520569 16.7491)"/>
</clipPath>
</defs>
</svg>
