<svg width="13" height="15" viewBox="0 0 13 15" fill="none" xmlns="http://www.w3.org/2000/svg">
<g clip-path="url(#clip0_169_86)">
<path d="M4.48483 1.9473C4.48483 1.9473 4.66233 1.87068 5.01733 1.71745C5.37233 1.56422 5.9365 1.48761 6.70983 1.48761C7.48316 1.48761 8.22483 1.64084 8.93483 1.9473C9.64483 2.25375 10.2582 2.66514 10.7748 3.18145C11.2915 3.69777 11.7032 4.31068 12.0098 5.0202C12.3165 5.72971 12.4698 6.47088 12.4698 7.24368C12.4698 8.01649 12.3165 8.75765 12.0098 9.46717C11.7032 10.1767 11.2915 10.7896 10.7748 11.3059C10.2582 11.8222 9.64483 12.2336 8.93483 12.5401C8.22483 12.8465 7.48316 12.9998 6.70983 12.9998C5.9365 12.9998 5.19483 12.8465 4.48483 12.5401C3.77483 12.2336 3.1615 11.8222 2.64483 11.3059C2.12816 10.7896 1.7165 10.1767 1.40983 9.46717C1.10316 8.75765 0.949829 8.01649 0.949829 7.24368C0.949829 6.47088 1.10316 5.72971 1.40983 5.0202C1.7165 4.31068 2.12816 3.69777 2.64483 3.18145C3.1615 2.66514 3.77483 2.25375 4.48483 1.9473ZM6.97983 2.2371C6.87983 2.31704 6.75816 2.38533 6.61483 2.44196C6.4715 2.49859 6.35316 2.53856 6.25983 2.56188C6.1665 2.58519 6.02316 2.61184 5.82983 2.64182C5.6365 2.6718 5.5065 2.69345 5.43983 2.70678C5.33983 2.72676 5.18816 2.72676 4.98483 2.70678C4.7815 2.68679 4.62983 2.69345 4.52983 2.72676C4.3965 2.7734 4.22483 2.86167 4.01483 2.99158C3.80483 3.12149 3.68983 3.23642 3.66983 3.33635C3.64983 3.40963 3.6715 3.48458 3.73483 3.56119C3.79816 3.63781 3.8265 3.69943 3.81983 3.74607C3.79983 3.97258 3.70816 4.27571 3.54483 4.65545C3.3815 5.03519 3.28316 5.29834 3.24983 5.44491C3.18983 5.67142 3.2065 5.98121 3.29983 6.37428C3.39316 6.76734 3.41983 7.05714 3.37983 7.24368C3.37983 7.30364 3.4365 7.45187 3.54983 7.68838C3.66316 7.92488 3.7165 8.12308 3.70983 8.28297C3.78983 8.28297 3.8665 8.29963 3.93983 8.33294C4.01316 8.36625 4.0915 8.41622 4.17483 8.48284C4.25816 8.54946 4.32316 8.59609 4.36983 8.62274C4.4765 8.67604 4.5865 8.726 4.69983 8.77264C4.81316 8.81927 4.94816 8.86924 5.10483 8.92254C5.2615 8.97583 5.3765 9.01581 5.44983 9.04246C5.58983 9.10241 5.76483 9.20901 5.97483 9.36224C6.18483 9.51547 6.38483 9.64205 6.57483 9.74198C6.76483 9.84191 6.9565 9.87855 7.14983 9.8519C7.1965 9.95183 7.1865 10.0651 7.11983 10.1917C7.05316 10.3183 6.97816 10.4515 6.89483 10.5914C6.8115 10.7313 6.77983 10.8579 6.79983 10.9711C6.8865 11.111 6.96316 11.226 7.02983 11.3159C7.0965 11.4058 7.18816 11.4974 7.30483 11.5907C7.4215 11.684 7.54316 11.7439 7.66983 11.7706C7.66983 11.8172 7.65816 11.8705 7.63483 11.9305C7.6115 11.9904 7.59983 12.0371 7.59983 12.0704C7.59983 12.1037 7.6165 12.1603 7.64983 12.2403C8.34316 12.2536 9.07983 11.8805 9.85983 11.121C10.0598 10.9278 10.2148 10.7713 10.3248 10.6514C10.4348 10.5314 10.5498 10.3682 10.6698 10.1617C10.7898 9.95517 10.8598 9.74531 10.8798 9.53212C10.7932 9.47882 10.6698 9.45051 10.5098 9.44718C10.3498 9.44385 10.2298 9.41887 10.1498 9.37223C10.0498 9.3256 9.88483 9.27563 9.65483 9.22233C9.42483 9.16904 9.25316 9.10575 9.13983 9.03246C9.01983 9.03246 8.88316 9.03413 8.72983 9.03746C8.5765 9.04079 8.43316 9.04579 8.29983 9.05245C8.1665 9.05911 8.0265 9.08076 7.87983 9.1174C7.73316 9.15405 7.6065 9.20901 7.49983 9.28229C7.15983 9.51547 6.93983 9.55544 6.83983 9.40221C6.81316 9.39555 6.8015 9.31061 6.80483 9.14738C6.80816 8.98416 6.80983 8.89922 6.80983 8.89256C6.76983 8.80595 6.6815 8.74766 6.54483 8.71768C6.40816 8.6877 6.3265 8.66605 6.29983 8.65272C6.3065 8.55279 6.30483 8.45119 6.29483 8.34793C6.28483 8.24467 6.2615 8.1514 6.22483 8.06812C6.18816 7.98484 6.1265 7.94654 6.03983 7.9532C5.95316 7.95986 5.84983 8.02981 5.72983 8.16305C5.5765 8.32961 5.4365 8.31628 5.30983 8.12308C5.18316 7.93654 5.1565 7.74334 5.22983 7.54348C5.26983 7.43688 5.34316 7.3636 5.44983 7.32363C5.48983 7.33029 5.5765 7.33529 5.70983 7.33862C5.84316 7.34195 5.95483 7.35527 6.04483 7.37859C6.13483 7.40191 6.19983 7.44688 6.23983 7.5135C6.2865 7.59344 6.3465 7.67339 6.41983 7.75333C6.49316 7.83328 6.56483 7.90157 6.63483 7.95819C6.70483 8.01482 6.7715 8.06479 6.83483 8.10809C6.89816 8.1514 6.94983 8.18637 6.98983 8.21302L7.03983 8.243C7.05316 8.16305 7.07816 8.06146 7.11483 7.93821C7.1515 7.81496 7.17816 7.70004 7.19483 7.59344C7.2115 7.48685 7.20983 7.38026 7.18983 7.27366C7.16983 7.15374 7.1815 7.05714 7.22483 6.98386C7.26816 6.91058 7.32816 6.83563 7.40483 6.75901C7.4815 6.6824 7.53316 6.60079 7.55983 6.51418C7.59983 6.42091 7.63483 6.30432 7.66483 6.16442C7.69483 6.02451 7.7215 5.92125 7.74483 5.85463C7.76816 5.78801 7.81983 5.71306 7.89983 5.62978C7.97983 5.54651 8.09316 5.47156 8.23983 5.40494C8.19983 5.28502 8.23316 5.1651 8.33983 5.04518C8.39316 5.04518 8.47316 5.05018 8.57983 5.06017C8.6865 5.07016 8.76816 5.07516 8.82483 5.07516C8.8815 5.07516 8.94816 5.06017 9.02483 5.03019C9.1015 5.00021 9.16983 4.94858 9.22983 4.8753C9.16316 4.72207 9.05983 4.5805 8.91983 4.45059C8.77983 4.32068 8.65483 4.22241 8.54483 4.15579C8.43483 4.08917 8.2715 3.99923 8.05483 3.88597C7.83816 3.77272 7.69316 3.6961 7.61983 3.65613C7.61983 3.64947 7.6265 3.62282 7.63983 3.57618C7.65316 3.52955 7.66316 3.49124 7.66983 3.46126C7.6765 3.43128 7.6815 3.39631 7.68483 3.35633C7.68816 3.31636 7.68483 3.28472 7.67483 3.2614C7.66483 3.23808 7.64983 3.22309 7.62983 3.21643C7.8365 3.30304 8.0315 3.35134 8.21483 3.36133C8.39816 3.37132 8.5265 3.363 8.59983 3.33635L8.71983 3.28638C8.75316 3.09984 8.7215 2.94661 8.62483 2.8267C8.52816 2.70678 8.4065 2.62683 8.25983 2.58686C8.11316 2.54689 7.9465 2.49692 7.75983 2.43696C7.57316 2.377 7.4365 2.31038 7.34983 2.2371C7.22983 2.26375 7.1065 2.26375 6.97983 2.2371ZM6.83983 3.30637C6.83983 3.41962 6.8665 3.55953 6.91983 3.72608C6.97316 3.89263 7.02983 4.04253 7.08983 4.17577C7.14983 4.30902 7.17983 4.38563 7.17983 4.40562C7.1265 4.39896 6.99483 4.38064 6.78483 4.35066C6.57483 4.32068 6.39983 4.28737 6.25983 4.25072C6.11983 4.21408 5.9965 4.15912 5.88983 4.08584C5.90983 4.01255 5.96316 3.91429 6.04983 3.79104C6.1365 3.66779 6.18983 3.58285 6.20983 3.53621C6.2765 3.60283 6.33983 3.63614 6.39983 3.63614C6.45983 3.63614 6.5065 3.61616 6.53983 3.57618C6.57316 3.53621 6.61816 3.48791 6.67483 3.43128C6.7315 3.37465 6.7865 3.33302 6.83983 3.30637Z" fill="white"/>
</g>
<defs>
<clipPath id="clip0_169_86">
<rect width="12" height="14.66" fill="white" transform="matrix(1 0 0 -1 0.709839 14.6887)"/>
</clipPath>
</defs>
</svg>
