<svg width="15" height="18" viewBox="0 0 15 18" fill="none" xmlns="http://www.w3.org/2000/svg">
<g clip-path="url(#clip0_122_51)">
<path d="M5.0667 2.67004C5.0667 2.67004 5.27475 2.58157 5.69086 2.40462C6.10698 2.22768 6.77003 2.13921 7.68003 2.13921C8.59003 2.13921 9.46114 2.31615 10.2934 2.67004C11.1256 3.02393 11.8431 3.50226 12.4459 4.10504C13.0486 4.70782 13.527 5.42532 13.8809 6.25754C14.2348 7.08976 14.4117 7.96087 14.4117 8.87087C14.4117 9.78087 14.2348 10.652 13.8809 11.4842C13.527 12.3164 13.0486 13.0339 12.4459 13.6367C11.8431 14.2395 11.1256 14.7178 10.2934 15.0717C9.46114 15.4256 8.59003 15.6025 7.68003 15.6025C6.77003 15.6025 5.89892 15.4256 5.0667 15.0717C4.23448 14.7178 3.51698 14.2395 2.9142 13.6367C2.31142 13.0339 1.83309 12.3164 1.4792 11.4842C1.12531 10.652 0.948364 9.78087 0.948364 8.87087C0.948364 7.96087 1.12531 7.08976 1.4792 6.25754C1.83309 5.42532 2.31142 4.70782 2.9142 4.10504C3.51698 3.50226 4.23448 3.02393 5.0667 2.67004ZM8.55503 4.20421H6.80503C6.72725 4.20421 6.6592 4.23337 6.60086 4.29171C6.54253 4.35004 6.51336 4.41809 6.51336 4.49587V6.24587C6.51336 6.32365 6.54253 6.39171 6.60086 6.45004C6.6592 6.50837 6.72725 6.53754 6.80503 6.53754H8.55503C8.63281 6.53754 8.70086 6.50837 8.7592 6.45004C8.81753 6.39171 8.8467 6.32365 8.8467 6.24587V4.49587C8.8467 4.41809 8.81753 4.35004 8.7592 4.29171C8.70086 4.23337 8.63281 4.20421 8.55503 4.20421ZM8.55503 7.70421H5.63836C5.56059 7.70421 5.49253 7.73337 5.4342 7.79171C5.37586 7.85004 5.3467 7.91809 5.3467 7.99587V8.57921C5.3467 8.65698 5.37586 8.72504 5.4342 8.78337C5.49253 8.84171 5.56059 8.87087 5.63836 8.87087H6.51336V11.2042H5.63836C5.56059 11.2042 5.49253 11.2334 5.4342 11.2917C5.37586 11.35 5.3467 11.4181 5.3467 11.4959V12.0792C5.3467 12.157 5.37586 12.225 5.4342 12.2834C5.49253 12.3417 5.56059 12.3709 5.63836 12.3709H9.7217C9.79948 12.3709 9.86753 12.3417 9.92586 12.2834C9.9842 12.225 10.0134 12.157 10.0134 12.0792V11.4959C10.0134 11.4181 9.9842 11.35 9.92586 11.2917C9.86753 11.2334 9.79948 11.2042 9.7217 11.2042H8.8467V7.99587C8.8467 7.91809 8.81753 7.85004 8.7592 7.79171C8.70086 7.73337 8.63281 7.70421 8.55503 7.70421Z" fill="#555555"/>
</g>
<defs>
<clipPath id="clip0_122_51">
<rect width="14" height="16.67" fill="white" transform="matrix(1 0 0 -1 0.680023 17.3401)"/>
</clipPath>
</defs>
</svg>
