<svg width="15" height="18" viewBox="0 0 15 18" fill="none" xmlns="http://www.w3.org/2000/svg">
<g clip-path="url(#clip0_148_30)">
<path d="M5.33034 2.45202C5.33034 2.45202 5.53839 2.36355 5.95451 2.1866C6.37062 2.00966 7.03367 1.92119 7.94367 1.92119C8.85367 1.92119 9.72478 2.09813 10.557 2.45202C11.3892 2.80591 12.1067 3.28424 12.7095 3.88702C13.3123 4.4898 13.7906 5.2073 14.1445 6.03952C14.4984 6.87174 14.6753 7.74285 14.6753 8.65285C14.6753 9.56285 14.4984 10.434 14.1445 11.2662C13.7906 12.0984 13.3123 12.8159 12.7095 13.4187C12.1067 14.0215 11.3892 14.4998 10.557 14.8537C9.72478 15.2076 8.85367 15.3845 7.94367 15.3845C7.03367 15.3845 6.16256 15.2076 5.33034 14.8537C4.49812 14.4998 3.78062 14.0215 3.17784 13.4187C2.57506 12.8159 2.09673 12.0984 1.74284 11.2662C1.38895 10.434 1.21201 9.56285 1.21201 8.65285C1.21201 7.74285 1.38895 6.87174 1.74284 6.03952C2.09673 5.2073 2.57506 4.4898 3.17784 3.88702C3.78062 3.28424 4.49812 2.80591 5.33034 2.45202ZM8.81867 3.98619H7.06867C6.99089 3.98619 6.92284 4.01535 6.86451 4.07369C6.80617 4.13202 6.77701 4.20008 6.77701 4.27785V6.02785C6.77701 6.10563 6.80617 6.17369 6.86451 6.23202C6.92284 6.29035 6.99089 6.31952 7.06867 6.31952H8.81867C8.89645 6.31952 8.96451 6.29035 9.02284 6.23202C9.08117 6.17369 9.11034 6.10563 9.11034 6.02785V4.27785C9.11034 4.20008 9.08117 4.13202 9.02284 4.07369C8.96451 4.01535 8.89645 3.98619 8.81867 3.98619ZM8.81867 7.48619H5.90201C5.82423 7.48619 5.75617 7.51535 5.69784 7.57369C5.63951 7.63202 5.61034 7.70008 5.61034 7.77785V8.36119C5.61034 8.43897 5.63951 8.50702 5.69784 8.56535C5.75617 8.62369 5.82423 8.65285 5.90201 8.65285H6.77701V10.9862H5.90201C5.82423 10.9862 5.75617 11.0154 5.69784 11.0737C5.63951 11.132 5.61034 11.2001 5.61034 11.2779V11.8612C5.61034 11.939 5.63951 12.007 5.69784 12.0654C5.75617 12.1237 5.82423 12.1529 5.90201 12.1529H9.98534C10.0631 12.1529 10.1312 12.1237 10.1895 12.0654C10.2478 12.007 10.277 11.939 10.277 11.8612V11.2779C10.277 11.2001 10.2478 11.132 10.1895 11.0737C10.1312 11.0154 10.0631 10.9862 9.98534 10.9862H9.11034V7.77785C9.11034 7.70008 9.08117 7.63202 9.02284 7.57369C8.96451 7.51535 8.89645 7.48619 8.81867 7.48619Z" fill="#555555"/>
</g>
<defs>
<clipPath id="clip0_148_30">
<rect width="14" height="16.67" fill="white" transform="matrix(1 0 0 -1 0.94368 17.1221)"/>
</clipPath>
</defs>
</svg>
