<svg width="15" height="17" viewBox="0 0 15 17" fill="none" xmlns="http://www.w3.org/2000/svg">
<g clip-path="url(#clip0_3_69)">
<path d="M0.623929 2.45525H13.5973C13.7373 2.45525 13.8578 2.50578 13.9589 2.60683C14.06 2.70788 14.1106 2.82836 14.1106 2.96828V14.7679C14.1106 14.9078 14.06 15.0283 13.9589 15.1293C13.8578 15.2304 13.7373 15.2809 13.5973 15.2809H0.623929C0.483929 15.2809 0.363373 15.2304 0.262262 15.1293C0.161151 15.0283 0.110596 14.9078 0.110596 14.7679V2.96828C0.110596 2.82836 0.161151 2.70788 0.262262 2.60683C0.363373 2.50578 0.483929 2.45525 0.623929 2.45525ZM1.27726 3.62122V12.2144L4.15893 10.0923L7.6356 11.6197L6.77226 9.80084L10.1906 6.09307L12.9439 9.45105V3.62122H1.27726ZM2.99226 5.42846C2.99226 5.42846 3.0681 5.35268 3.21976 5.2011C3.37143 5.04953 3.66504 4.97374 4.1006 4.97374C4.53615 4.97374 4.9056 5.12531 5.20893 5.42846C5.51226 5.73162 5.66393 6.0989 5.66393 6.5303C5.66393 6.96171 5.51226 7.33093 5.20893 7.63797C4.9056 7.94501 4.53615 8.09853 4.1006 8.09853C3.66504 8.09853 3.2956 7.94501 2.99226 7.63797C2.68893 7.33093 2.53726 6.96171 2.53726 6.5303C2.53726 6.0989 2.68893 5.73162 2.99226 5.42846Z" fill="white"/>
</g>
<defs>
<clipPath id="clip0_3_69">
<rect width="14" height="16.66" fill="white" transform="matrix(1 0 0 -1 0.110596 16.7491)"/>
</clipPath>
</defs>
</svg>
