<svg width="12" height="13" viewBox="0 0 12 13" fill="none" xmlns="http://www.w3.org/2000/svg">
<path d="M1.03979 0.247927H11.5398C11.6065 0.247927 11.6648 0.27291 11.7148 0.322876C11.7648 0.372842 11.7898 0.431135 11.7898 0.497757V11.9899C11.7898 12.0565 11.7648 12.1148 11.7148 12.1648C11.6648 12.2148 11.6065 12.2397 11.5398 12.2397H1.03979C0.973128 12.2397 0.914795 12.2148 0.864795 12.1648C0.814795 12.1148 0.789795 12.0565 0.789795 11.9899V0.497757C0.789795 0.431135 0.814795 0.372842 0.864795 0.322876C0.914795 0.27291 0.973128 0.247927 1.03979 0.247927ZM10.5398 2.24656H2.03979C1.97313 2.24656 1.91479 2.27155 1.86479 2.32151C1.81479 2.37148 1.78979 2.42977 1.78979 2.49639V10.9906C1.78979 11.0572 1.81479 11.1155 1.86479 11.1655C1.91479 11.2154 1.97313 11.2404 2.03979 11.2404H10.5398C10.6065 11.2404 10.6648 11.2154 10.7148 11.1655C10.7648 11.1155 10.7898 11.0572 10.7898 10.9906V2.49639C10.7898 2.42977 10.7648 2.37148 10.7148 2.32151C10.6648 2.27155 10.6065 2.24656 10.5398 2.24656ZM3.03979 3.24588H3.53979C3.60646 3.24588 3.66479 3.27086 3.71479 3.32083C3.76479 3.3708 3.78979 3.42909 3.78979 3.49571V3.99537C3.78979 4.06199 3.76479 4.12029 3.71479 4.17025C3.66479 4.22022 3.60646 4.2452 3.53979 4.2452H3.03979C2.97313 4.2452 2.91479 4.22022 2.86479 4.17025C2.81479 4.12029 2.78979 4.06199 2.78979 3.99537V3.49571C2.78979 3.42909 2.81479 3.3708 2.86479 3.32083C2.91479 3.27086 2.97313 3.24588 3.03979 3.24588ZM5.03979 3.24588H9.53979C9.60646 3.24588 9.66479 3.27086 9.71479 3.32083C9.76479 3.3708 9.78979 3.42909 9.78979 3.49571V3.99537C9.78979 4.06199 9.76479 4.12029 9.71479 4.17025C9.66479 4.22022 9.60646 4.2452 9.53979 4.2452H5.03979C4.97313 4.2452 4.91479 4.22022 4.86479 4.17025C4.81479 4.12029 4.78979 4.06199 4.78979 3.99537V3.49571C4.78979 3.42909 4.81479 3.3708 4.86479 3.32083C4.91479 3.27086 4.97313 3.24588 5.03979 3.24588ZM3.03979 5.24452H3.53979C3.60646 5.24452 3.66479 5.2695 3.71479 5.31947C3.76479 5.36943 3.78979 5.42773 3.78979 5.49435V5.99401C3.78979 6.06063 3.76479 6.11892 3.71479 6.16889C3.66479 6.21885 3.60646 6.24384 3.53979 6.24384H3.03979C2.97313 6.24384 2.91479 6.21885 2.86479 6.16889C2.81479 6.11892 2.78979 6.06063 2.78979 5.99401V5.49435C2.78979 5.42773 2.81479 5.36943 2.86479 5.31947C2.91479 5.2695 2.97313 5.24452 3.03979 5.24452ZM5.03979 5.24452H9.53979C9.60646 5.24452 9.66479 5.2695 9.71479 5.31947C9.76479 5.36943 9.78979 5.42773 9.78979 5.49435V5.99401C9.78979 6.06063 9.76479 6.11892 9.71479 6.16889C9.66479 6.21885 9.60646 6.24384 9.53979 6.24384H5.03979C4.97313 6.24384 4.91479 6.21885 4.86479 6.16889C4.81479 6.11892 4.78979 6.06063 4.78979 5.99401V5.49435C4.78979 5.42773 4.81479 5.36943 4.86479 5.31947C4.91479 5.2695 4.97313 5.24452 5.03979 5.24452ZM3.03979 7.24315H3.53979C3.60646 7.24315 3.66479 7.26814 3.71479 7.3181C3.76479 7.36807 3.78979 7.42636 3.78979 7.49298V7.99264C3.78979 8.05926 3.76479 8.11756 3.71479 8.16752C3.66479 8.21749 3.60646 8.24247 3.53979 8.24247H3.03979C2.97313 8.24247 2.91479 8.21749 2.86479 8.16752C2.81479 8.11756 2.78979 8.05926 2.78979 7.99264V7.49298C2.78979 7.42636 2.81479 7.36807 2.86479 7.3181C2.91479 7.26814 2.97313 7.24315 3.03979 7.24315ZM5.03979 7.24315H9.53979C9.60646 7.24315 9.66479 7.26814 9.71479 7.3181C9.76479 7.36807 9.78979 7.42636 9.78979 7.49298V7.99264C9.78979 8.05926 9.76479 8.11756 9.71479 8.16752C9.66479 8.21749 9.60646 8.24247 9.53979 8.24247H5.03979C4.97313 8.24247 4.91479 8.21749 4.86479 8.16752C4.81479 8.11756 4.78979 8.05926 4.78979 7.99264V7.49298C4.78979 7.42636 4.81479 7.36807 4.86479 7.3181C4.91479 7.26814 4.97313 7.24315 5.03979 7.24315ZM3.03979 9.24179H3.53979C3.60646 9.24179 3.66479 9.26677 3.71479 9.31674C3.76479 9.36671 3.78979 9.425 3.78979 9.49162V9.99128C3.78979 10.0579 3.76479 10.1162 3.71479 10.1662C3.66479 10.2161 3.60646 10.2411 3.53979 10.2411H3.03979C2.97313 10.2411 2.91479 10.2161 2.86479 10.1662C2.81479 10.1162 2.78979 10.0579 2.78979 9.99128V9.49162C2.78979 9.425 2.81479 9.36671 2.86479 9.31674C2.91479 9.26677 2.97313 9.24179 3.03979 9.24179ZM5.03979 9.24179H9.53979C9.60646 9.24179 9.66479 9.26677 9.71479 9.31674C9.76479 9.36671 9.78979 9.425 9.78979 9.49162V9.99128C9.78979 10.0579 9.76479 10.1162 9.71479 10.1662C9.66479 10.2161 9.60646 10.2411 9.53979 10.2411H5.03979C4.97313 10.2411 4.91479 10.2161 4.86479 10.1662C4.81479 10.1162 4.78979 10.0579 4.78979 9.99128V9.49162C4.78979 9.425 4.81479 9.36671 4.86479 9.31674C4.91479 9.26677 4.97313 9.24179 5.03979 9.24179Z" fill="white"/>
</svg>
