<svg width="13" height="13" viewBox="0 0 13 13" fill="none" xmlns="http://www.w3.org/2000/svg">
<g clip-path="url(#clip0_39_476)">
<path d="M3.06061 8.60055C3.06061 8.60055 3.10246 8.5587 3.18617 8.47499C3.26987 8.39129 3.31172 8.23113 3.31172 7.99452C3.31172 7.75792 3.22802 7.55591 3.06061 7.3885C2.8932 7.22109 2.69119 7.13738 2.45458 7.13738C2.21797 7.13738 2.01597 7.22109 1.84855 7.3885C1.68114 7.55591 1.59744 7.75792 1.59744 7.99452C1.59744 8.23113 1.68114 8.43314 1.84855 8.60055C2.01597 8.76796 2.21797 8.85167 2.45458 8.85167C2.69119 8.85167 2.8932 8.76796 3.06061 8.60055ZM4.34632 5.60055C4.34632 5.60055 4.38817 5.5587 4.47188 5.47499C4.55559 5.39129 4.59744 5.23113 4.59744 4.99452C4.59744 4.75792 4.51373 4.55591 4.34632 4.3885C4.17891 4.22109 3.9769 4.13738 3.7403 4.13738C3.50369 4.13738 3.30168 4.22109 3.13427 4.3885C2.96686 4.55591 2.88315 4.75792 2.88315 4.99452C2.88315 5.23113 2.96686 5.43314 3.13427 5.60055C3.30168 5.76796 3.50369 5.85167 3.7403 5.85167C3.9769 5.85167 4.17891 5.76796 4.34632 5.60055ZM7.46351 8.21551L8.13985 5.65747C8.16663 5.5414 8.14989 5.43314 8.08963 5.33269C8.02936 5.23225 7.94342 5.1664 7.83181 5.13515C7.72021 5.1039 7.61306 5.11841 7.51038 5.17868C7.40771 5.23894 7.34074 5.32711 7.30949 5.44318L6.63315 8.00122C6.3653 8.02354 6.12646 8.12064 5.91663 8.29252C5.70681 8.46439 5.56619 8.68426 5.49476 8.95211C5.40547 9.29586 5.45012 9.62176 5.62869 9.92979C5.80726 10.2378 6.06842 10.4365 6.41217 10.5258C6.75592 10.6151 7.08181 10.5704 7.38985 10.3918C7.69788 10.2133 7.89655 9.95211 7.98583 9.60836C8.05726 9.34051 8.04387 9.07935 7.94565 8.82488C7.84744 8.57042 7.68672 8.36729 7.46351 8.21551ZM11.632 8.60055C11.632 8.60055 11.6739 8.5587 11.7576 8.47499C11.8413 8.39129 11.8832 8.23113 11.8832 7.99452C11.8832 7.75792 11.7994 7.55591 11.632 7.3885C11.4646 7.22109 11.2626 7.13738 11.026 7.13738C10.7894 7.13738 10.5874 7.22109 10.42 7.3885C10.2526 7.55591 10.1689 7.75792 10.1689 7.99452C10.1689 8.23113 10.2526 8.43314 10.42 8.60055C10.5874 8.76796 10.7894 8.85167 11.026 8.85167C11.2626 8.85167 11.4646 8.76796 11.632 8.60055ZM7.34632 4.31484C7.34632 4.31484 7.38817 4.27298 7.47188 4.18928C7.55559 4.10557 7.59744 3.94542 7.59744 3.70881C7.59744 3.4722 7.51373 3.27019 7.34632 3.10278C7.17891 2.93537 6.9769 2.85167 6.7403 2.85167C6.50369 2.85167 6.30168 2.93537 6.13427 3.10278C5.96686 3.27019 5.88315 3.4722 5.88315 3.70881C5.88315 3.94542 5.96686 4.14743 6.13427 4.31484C6.30168 4.48225 6.50369 4.56595 6.7403 4.56595C6.9769 4.56595 7.17891 4.48225 7.34632 4.31484ZM10.3463 5.60055C10.3463 5.60055 10.3882 5.5587 10.4719 5.47499C10.5556 5.39129 10.5974 5.23113 10.5974 4.99452C10.5974 4.75792 10.5137 4.55591 10.3463 4.3885C10.1789 4.22109 9.9769 4.13738 9.7403 4.13738C9.50369 4.13738 9.30168 4.22109 9.13427 4.3885C8.96686 4.55591 8.88315 4.75792 8.88315 4.99452C8.88315 5.23113 8.96686 5.43314 9.13427 5.60055C9.30168 5.76796 9.50369 5.85167 9.7403 5.85167C9.9769 5.85167 10.1789 5.76796 10.3463 5.60055ZM12.7403 7.99452C12.7403 9.1597 12.4256 10.2378 11.7961 11.2289C11.7113 11.3584 11.5907 11.4231 11.4345 11.4231H2.0461C1.88985 11.4231 1.76931 11.3584 1.68449 11.2289C1.05503 10.2423 0.740295 9.16417 0.740295 7.99452C0.740295 7.18202 0.898778 6.40524 1.21574 5.66417C1.53271 4.9231 1.95905 4.2847 2.49476 3.74899C3.03047 3.21327 3.66887 2.78693 4.40994 2.46997C5.15101 2.15301 5.9278 1.99452 6.7403 1.99452C7.5528 1.99452 8.32958 2.15301 9.07065 2.46997C9.81172 2.78693 10.4501 3.21327 10.9858 3.74899C11.5215 4.2847 11.9479 4.9231 12.2648 5.66417C12.5818 6.40524 12.7403 7.18202 12.7403 7.99452Z" fill="#444444"/>
</g>
<defs>
<clipPath id="clip0_39_476">
<rect width="12" height="12" fill="white" transform="matrix(1 0 0 -1 0.740295 12.2803)"/>
</clipPath>
</defs>
</svg>
