<svg width="15" height="15" viewBox="0 0 15 15" fill="none" xmlns="http://www.w3.org/2000/svg">
<g clip-path="url(#clip0_3_148)">
<path d="M3.30762 10.196C3.30762 10.196 3.35645 10.1472 3.4541 10.0496C3.55176 9.9519 3.60059 9.76506 3.60059 9.48901C3.60059 9.21297 3.50293 8.97729 3.30762 8.78198C3.1123 8.58667 2.87663 8.48901 2.60059 8.48901C2.32454 8.48901 2.08887 8.58667 1.89355 8.78198C1.69824 8.97729 1.60059 9.21297 1.60059 9.48901C1.60059 9.76506 1.69824 10.0007 1.89355 10.196C2.08887 10.3914 2.32454 10.489 2.60059 10.489C2.87663 10.489 3.1123 10.3914 3.30762 10.196ZM4.80762 6.69604C4.80762 6.69604 4.85645 6.64722 4.9541 6.54956C5.05176 6.4519 5.10059 6.26506 5.10059 5.98901C5.10059 5.71297 5.00293 5.47729 4.80762 5.28198C4.6123 5.08667 4.37663 4.98901 4.10059 4.98901C3.82454 4.98901 3.58887 5.08667 3.39355 5.28198C3.19824 5.47729 3.10059 5.71297 3.10059 5.98901C3.10059 6.26506 3.19824 6.50073 3.39355 6.69604C3.58887 6.89136 3.82454 6.98901 4.10059 6.98901C4.37663 6.98901 4.6123 6.89136 4.80762 6.69604ZM8.44434 9.74683L9.2334 6.76245C9.26465 6.62703 9.24512 6.50073 9.1748 6.38354C9.10449 6.26636 9.00423 6.18953 8.87402 6.15308C8.74382 6.11662 8.61882 6.13354 8.49902 6.20386C8.37923 6.27417 8.30111 6.37703 8.26465 6.51245L7.47559 9.49683C7.16309 9.52287 6.88444 9.63615 6.63965 9.83667C6.39486 10.0372 6.23079 10.2937 6.14746 10.6062C6.04329 11.0072 6.09538 11.3875 6.30371 11.7468C6.51204 12.1062 6.81673 12.338 7.21777 12.4421C7.61881 12.5463 7.99902 12.4942 8.3584 12.2859C8.71777 12.0776 8.94954 11.7729 9.05371 11.3718C9.13704 11.0593 9.12142 10.7546 9.00684 10.4578C8.89225 10.1609 8.70475 9.92391 8.44434 9.74683ZM13.3076 10.196C13.3076 10.196 13.3564 10.1472 13.4541 10.0496C13.5518 9.9519 13.6006 9.76506 13.6006 9.48901C13.6006 9.21297 13.5029 8.97729 13.3076 8.78198C13.1123 8.58667 12.8766 8.48901 12.6006 8.48901C12.3245 8.48901 12.0889 8.58667 11.8936 8.78198C11.6982 8.97729 11.6006 9.21297 11.6006 9.48901C11.6006 9.76506 11.6982 10.0007 11.8936 10.196C12.0889 10.3914 12.3245 10.489 12.6006 10.489C12.8766 10.489 13.1123 10.3914 13.3076 10.196ZM8.30762 5.19604C8.30762 5.19604 8.35645 5.14722 8.4541 5.04956C8.55176 4.9519 8.60059 4.76506 8.60059 4.48901C8.60059 4.21297 8.50293 3.97729 8.30762 3.78198C8.1123 3.58667 7.87663 3.48901 7.60059 3.48901C7.32454 3.48901 7.08887 3.58667 6.89355 3.78198C6.69824 3.97729 6.60059 4.21297 6.60059 4.48901C6.60059 4.76506 6.69824 5.00073 6.89355 5.19604C7.08887 5.39136 7.32454 5.48901 7.60059 5.48901C7.87663 5.48901 8.1123 5.39136 8.30762 5.19604ZM11.8076 6.69604C11.8076 6.69604 11.8564 6.64722 11.9541 6.54956C12.0518 6.4519 12.1006 6.26506 12.1006 5.98901C12.1006 5.71297 12.0029 5.47729 11.8076 5.28198C11.6123 5.08667 11.3766 4.98901 11.1006 4.98901C10.8245 4.98901 10.5889 5.08667 10.3936 5.28198C10.1982 5.47729 10.1006 5.71297 10.1006 5.98901C10.1006 6.26506 10.1982 6.50073 10.3936 6.69604C10.5889 6.89136 10.8245 6.98901 11.1006 6.98901C11.3766 6.98901 11.6123 6.89136 11.8076 6.69604ZM14.6006 9.48901C14.6006 10.8484 14.2334 12.1062 13.499 13.2625C13.4001 13.4135 13.2594 13.489 13.0771 13.489H2.12402C1.94173 13.489 1.80111 13.4135 1.70215 13.2625C0.967773 12.1114 0.600586 10.8536 0.600586 9.48901C0.600586 8.5411 0.785482 7.63485 1.15527 6.77026C1.52507 5.90568 2.02246 5.16089 2.64746 4.53589C3.27246 3.91089 4.01725 3.41349 4.88184 3.0437C5.74642 2.67391 6.65267 2.48901 7.60059 2.48901C8.5485 2.48901 9.45475 2.67391 10.3193 3.0437C11.1839 3.41349 11.9287 3.91089 12.5537 4.53589C13.1787 5.16089 13.6761 5.90568 14.0459 6.77026C14.4157 7.63485 14.6006 8.5411 14.6006 9.48901Z" fill="#B8C7CE"/>
</g>
<defs>
<clipPath id="clip0_3_148">
<rect width="14" height="14" fill="white" transform="matrix(1 0 0 -1 0.600586 14.489)"/>
</clipPath>
</defs>
</svg>
